P1
# une ligne image = une ligne du fichier
4 3
0000
0110
0000